<svg width="325" height="227" viewBox="0 0 325 227" fill="none" xmlns="http://www.w3.org/2000/svg">
<path d="M58.3759 96.9289C58.3759 95.3017 57.2911 93.9457 55.1215 92.8609C52.9519 91.6405 50.4432 91.0303 47.5956 91.0303C44.748 91.0303 41.9682 91.7083 39.2562 93.0643C43.8666 97.2679 48.9516 99.3697 54.5112 99.3697C55.7317 99.3697 56.6809 99.0985 57.3589 98.5561C58.0369 97.8781 58.3759 97.3357 58.3759 96.9289ZM67.9357 62.9611L68.3425 57.4693C68.3425 54.4861 67.1899 51.7063 64.8847 49.1299C62.7151 46.4179 59.7319 45.0619 55.935 45.0619C49.4262 45.0619 43.5276 47.9773 38.2392 53.8081C32.9508 59.6389 30.3066 65.8765 30.3066 72.5209C30.3066 79.0297 32.0016 84.5215 35.3916 88.9963C41.2224 86.4199 46.6464 85.1317 51.6636 85.1317C56.6809 85.1317 60.6811 86.0131 63.6643 87.7759C66.7831 89.4031 68.3425 91.9117 68.3425 95.3017C68.3425 98.6917 66.6475 101.2 63.2575 102.828C60.0031 104.455 56.3418 105.268 52.2738 105.268C44.6802 105.268 37.7646 103.167 31.527 98.9629C28.2726 102.353 25.6284 106.353 23.5944 110.964C21.696 115.574 20.7468 119.845 20.7468 123.778C20.7468 131.778 23.3232 139.101 28.476 145.745C33.6288 152.389 40.4766 155.712 49.0194 155.712C66.9187 155.712 81.4957 143.914 92.7505 120.32C96.5473 112.591 98.9203 108.726 99.8695 108.726C100.954 108.726 101.497 109.269 101.497 110.353C101.497 115.777 98.1067 123.981 91.3267 134.965C84.6823 145.813 77.4277 153.406 69.5629 157.746C61.8337 161.949 52.2738 164.051 40.8834 164.051C29.6286 164.051 20.7468 160.729 14.238 154.084C7.72921 147.44 4.4748 139.168 4.4748 129.27C4.4748 122.761 6.37321 116.523 10.17 110.557C14.1024 104.455 19.1196 99.2341 25.2216 94.8949C18.8484 89.6065 15.6618 83.2333 15.6618 75.7753C15.6618 65.4697 19.662 56.7913 27.6624 49.7401C35.6628 42.5533 45.3582 38.9599 56.7487 38.9599C64.2067 38.9599 70.4443 40.9261 75.4615 44.8585C80.6143 48.6553 83.1907 53.1979 83.1907 58.4863C83.1907 61.4695 82.3093 63.9103 80.5465 65.8087C78.7837 67.7071 76.5463 68.6563 73.8343 68.6563C69.9019 68.6563 67.9357 66.7579 67.9357 62.9611ZM173.205 118.896C178.9 118.896 184.188 116.455 189.07 111.574C191.511 109.133 193.138 107.913 193.952 107.913C194.901 107.913 195.375 108.591 195.375 109.947C195.375 111.303 194.494 112.93 192.731 114.828C185.544 122.829 176.527 126.829 165.679 126.829C163.509 136.863 160.119 145.27 155.509 152.05C150.899 158.695 145.068 162.017 138.017 162.017C130.965 162.017 125.88 157.881 122.762 149.61C117.202 157.881 111.439 162.017 105.473 162.017C94.2177 162.017 88.5903 151.169 88.5903 129.473C88.5903 114.421 90.0819 104.184 93.0651 98.7595C93.6075 97.8103 95.6415 96.2509 99.1671 94.0813C102.693 91.9117 105.134 90.8269 106.49 90.8269C108.524 90.8269 109.541 92.0473 109.541 94.4881C109.269 100.861 107.371 108.387 103.845 117.066C103.032 118.693 102.625 122.625 102.625 128.863C102.625 134.965 103.303 140.389 104.659 145.135C106.151 149.745 108.252 152.05 110.964 152.05C113.676 152.05 116.999 148.796 120.931 142.287C120.253 138.897 119.914 135.304 119.914 131.507C119.914 127.575 120.321 123.439 121.134 119.1C121.948 114.625 123.575 110.15 126.016 105.675C128.457 101.2 131.372 98.9629 134.762 98.9629C135.847 98.9629 136.593 99.3019 137 99.9799C137.542 100.658 137.813 102.285 137.813 104.862C137.813 111.777 135.983 120.388 132.321 130.693C132.864 136.66 134.22 141.745 136.389 145.948C138.695 150.016 141.203 152.05 143.915 152.05C147.848 152.05 151.17 149.542 153.882 144.525C156.594 139.372 158.696 133.134 160.187 125.812C155.17 124.456 151.305 121.879 148.593 118.083C145.881 114.286 144.525 109.947 144.525 105.065C144.525 100.048 145.678 95.7763 147.983 92.2507C150.424 88.5895 153.95 86.7589 158.56 86.7589C164.798 86.7589 167.916 93.4711 167.916 106.896C167.916 110.421 167.713 114.082 167.306 117.879C169.34 118.557 171.306 118.896 173.205 118.896ZM157.136 94.4881C155.916 94.4881 155.306 96.7933 155.306 101.404C155.306 106.014 157.407 110.286 161.611 114.218C161.747 113.54 161.814 112.523 161.814 111.167C161.814 100.048 160.255 94.4881 157.136 94.4881ZM183.14 143.304L184.36 120.523C184.36 106.014 185.038 98.0815 186.394 96.7255C187.75 95.3695 190.123 93.4033 193.513 90.8269C197.039 88.1149 199.547 86.7589 201.039 86.7589C202.666 86.7589 203.683 87.0301 204.09 87.5725C204.497 88.1149 204.7 89.1997 204.7 90.8269C204.7 96.6577 203.412 102.556 200.835 108.523C198.801 120.998 197.784 131.236 197.784 139.236C197.784 147.237 198.734 151.237 200.632 151.237C203.886 151.237 207.615 148.389 211.819 142.694C216.158 136.863 220.565 128.32 225.04 117.066C225.176 114.082 225.311 110.964 225.447 107.709C225.582 104.319 225.718 101.878 225.854 100.387C225.989 98.7595 226.057 97.6069 226.057 96.9289C226.193 96.2509 228.091 94.4203 231.752 91.4371C235.413 88.3183 238.193 86.7589 240.092 86.7589C242.126 86.7589 243.143 89.3353 243.143 94.4881C243.143 95.8441 242.736 98.4883 241.922 102.421C241.244 106.353 240.431 109.201 239.481 110.964C238.397 120.591 237.651 128.998 237.244 136.185C250.533 119.371 257.584 110.489 258.398 109.54C259.347 108.591 260.16 108.116 260.838 108.116C262.194 108.116 262.872 108.794 262.872 110.15C262.872 110.964 262.601 111.845 262.059 112.794C257.72 119.167 249.177 130.354 236.43 146.355C235.617 162.492 235.074 173.475 234.803 179.306C234.125 196.527 231.684 208.596 227.481 215.511C223.413 222.562 216.09 226.088 205.514 226.088C200.903 226.088 196.564 224.664 192.496 221.817C188.564 219.105 186.597 214.291 186.597 207.375C186.597 200.595 189.174 193.612 194.327 186.425C199.615 179.238 209.175 168.187 223.006 153.271L224.226 131.1C219.616 141.27 215.073 148.999 210.599 154.288C206.124 159.441 201.174 162.017 195.75 162.017C190.326 162.017 186.869 160.661 185.377 157.949C183.885 155.237 183.14 150.355 183.14 143.304ZM222.396 162.831C206.937 179.509 199.208 192.866 199.208 202.9C199.208 207.511 200.022 211.308 201.649 214.291C203.276 217.274 205.514 218.766 208.361 218.766C212.7 218.766 215.751 216.393 217.514 211.647C219.277 206.901 220.565 197.273 221.379 182.764L222.396 162.831ZM284.353 98.7595L284.76 95.7085C284.76 93.2677 283.336 92.0473 280.489 92.0473C277.777 92.0473 275.133 93.8779 272.556 97.5391C269.98 101.065 268.692 103.98 268.692 106.285C268.692 108.591 268.827 110.421 269.098 111.777C269.37 113.133 269.641 114.286 269.912 115.235C270.319 116.049 270.929 117.066 271.743 118.286C272.556 119.506 273.166 120.388 273.573 120.93L275.811 123.778C276.76 125.134 277.438 126.015 277.845 126.422C284.896 120.591 293.303 114.082 303.066 106.896C303.609 106.489 304.219 106.285 304.897 106.285C306.253 106.285 306.931 107.031 306.931 108.523C306.931 110.014 306.321 111.167 305.1 111.981C296.422 117.54 288.218 123.574 280.489 130.083C283.472 134.422 284.964 139.168 284.964 144.321C284.964 149.474 282.997 153.881 279.065 157.542C275.133 161.203 270.115 163.034 264.013 163.034C257.911 163.034 254.86 160.119 254.86 154.288C254.86 150.084 259.335 143.643 268.285 134.965C267.607 134.151 266.386 132.863 264.624 131.1C262.861 129.202 261.505 127.71 260.556 126.625C259.742 125.541 258.725 124.117 257.505 122.354C255.335 118.964 254.25 115.303 254.25 111.37C254.25 103.37 256.827 96.9289 261.979 92.0473C267.132 87.0301 272.624 84.5215 278.455 84.5215C282.116 84.5215 284.964 85.5385 286.998 87.5725C289.032 89.4709 290.049 91.4371 290.049 93.4711C290.049 98.0815 288.964 100.387 286.794 100.387C285.167 100.387 284.353 99.8443 284.353 98.7595ZM271.336 138.829C265.912 144.253 263.2 148.66 263.2 152.05C263.2 155.305 264.895 156.932 268.285 156.932C270.319 156.932 272.014 156.118 273.37 154.491C276.353 150.423 275.675 145.203 271.336 138.829Z" fill="white"/>
<circle cx="250.59" cy="77.7357" r="20.3655" transform="rotate(15 250.59 77.7357)" fill="#E12E2E"/>
<path d="M256.853 63.0648C260.272 55.5476 270.681 39.7828 284.958 36.8613" stroke="#5F442C" stroke-width="3.17813" stroke-linecap="round" stroke-linejoin="round"/>
<path d="M284.585 61.2355C271.506 55.0698 277.761 42.7705 283.1 36.196C284.462 34.5183 286.724 35.1373 286.667 37.2977C286.582 40.5678 285.872 44.7095 286.076 49.0655C286.272 53.2382 288.864 58.0087 287.211 60.7414C286.684 61.6118 285.505 61.6693 284.585 61.2355Z" fill="#155514"/>
</svg>
